<?xml version="1.0" encoding="UTF-8"?>
<svg width="512" height="512" viewBox="0 0 512 512" fill="none" xmlns="http://www.w3.org/2000/svg">
  <defs>
    <filter id="lineGlow" x="-20%" y="-20%" width="140%" height="140%" color-interpolation-filters="sRGB">
      <feGaussianBlur stdDeviation="1.5" result="blur" />
      <feMerge>
        <feMergeNode in="blur" />
        <feMergeNode in="SourceGraphic" />
      </feMerge>
    </filter>
    <filter id="nodeGlow" x="-120%" y="-120%" width="340%" height="340%" color-interpolation-filters="sRGB">
      <feGaussianBlur stdDeviation="4" result="blur" />
      <feMerge>
        <feMergeNode in="blur" />
        <feMergeNode in="SourceGraphic" />
      </feMerge>
    </filter>
  </defs>
  <rect width="512" height="512" fill="#050504" />
  <circle cx="256" cy="256" r="194.56" fill="#c8a96e" opacity="0.032" />
  
    <g opacity="1">
      <g><polygon points="160.92,242.04 214.07,341.96 325.54,322.33 341.33,210.22 239.54,160.58" fill="#f0ede6" opacity="0.03318473655510627" />
<polygon points="98.6,339.8 182.05,407.63 214.07,341.96 160.92,242.04 88.77,232.34" fill="#f0ede6" opacity="0.042623197200072585" />
<polygon points="286.87,431.62 182.05,407.63 214.07,341.96 325.54,322.33 377.6,373.21" fill="#f0ede6" opacity="0.042623197200072585" />
<polygon points="160.92,242.04 239.54,160.58 226.71,89.36 127.65,132.28 88.77,232.34" fill="#f0ede6" opacity="0.04270793845086399" />
<polygon points="325.54,322.33 341.33,210.22 405.35,176.49 432.51,280.97 377.6,373.21" fill="#f0ede6" opacity="0.04270793845086399" />
<polygon points="226.71,89.36 334.13,95.8 405.35,176.49 341.33,210.22 239.54,160.58" fill="#f0ede6" opacity="0.04276031142410226" />
<polygon points="98.6,339.8 182.05,407.63 286.87,431.62 276.66,375.78 148.9,313.47" fill="#f0ede6" opacity="0.057979688575897734" />
<polygon points="98.6,339.8 148.9,313.47 168.63,172.66 127.65,132.28 88.77,232.34" fill="#f0ede6" opacity="0.058032061549136" />
<polygon points="286.87,431.62 276.66,375.78 375.46,273.54 432.51,280.97 377.6,373.21" fill="#f0ede6" opacity="0.058032061549136" />
<polygon points="168.63,172.66 308.71,147.93 334.13,95.8 226.71,89.36 127.65,132.28" fill="#f0ede6" opacity="0.05811680279992742" />
<polygon points="375.46,273.54 308.71,147.93 334.13,95.8 405.35,176.49 432.51,280.97" fill="#f0ede6" opacity="0.05811680279992742" />
<polygon points="168.63,172.66 308.71,147.93 375.46,273.54 276.66,375.78 148.9,313.47" fill="#f0ede6" opacity="0.06755526344489372" /></g>
      <g filter="url(#lineGlow)"><line x1="98.6" y1="339.8" x2="148.9" y2="313.47" stroke="#f7f4ed" stroke-width="3.32" stroke-linecap="round" opacity="0.16" filter="url(#lineGlow)" />
<line x1="168.63" y1="172.66" x2="308.71" y2="147.93" stroke="#f7f4ed" stroke-width="3.32" stroke-linecap="round" opacity="0.16" filter="url(#lineGlow)" />
<line x1="168.63" y1="172.66" x2="148.9" y2="313.47" stroke="#f7f4ed" stroke-width="3.32" stroke-linecap="round" opacity="0.16" filter="url(#lineGlow)" />
<line x1="168.63" y1="172.66" x2="127.65" y2="132.28" stroke="#f7f4ed" stroke-width="3.32" stroke-linecap="round" opacity="0.16" filter="url(#lineGlow)" />
<line x1="286.87" y1="431.62" x2="276.66" y2="375.78" stroke="#f7f4ed" stroke-width="3.32" stroke-linecap="round" opacity="0.16" filter="url(#lineGlow)" />
<line x1="375.46" y1="273.54" x2="308.71" y2="147.93" stroke="#f7f4ed" stroke-width="3.32" stroke-linecap="round" opacity="0.16" filter="url(#lineGlow)" />
<line x1="375.46" y1="273.54" x2="276.66" y2="375.78" stroke="#f7f4ed" stroke-width="3.32" stroke-linecap="round" opacity="0.16" filter="url(#lineGlow)" />
<line x1="375.46" y1="273.54" x2="432.51" y2="280.97" stroke="#f7f4ed" stroke-width="3.32" stroke-linecap="round" opacity="0.16" filter="url(#lineGlow)" />
<line x1="308.71" y1="147.93" x2="334.13" y2="95.8" stroke="#f7f4ed" stroke-width="3.32" stroke-linecap="round" opacity="0.16" filter="url(#lineGlow)" />
<line x1="148.9" y1="313.47" x2="276.66" y2="375.78" stroke="#f7f4ed" stroke-width="3.32" stroke-linecap="round" opacity="0.16" filter="url(#lineGlow)" /></g>
      <g><line x1="98.6" y1="339.8" x2="182.05" y2="407.63" stroke="#f0ede6" stroke-width="6.42" stroke-linecap="round" opacity="0.45280030910370406" />
<line x1="98.6" y1="339.8" x2="88.77" y2="232.34" stroke="#f0ede6" stroke-width="6.42" stroke-linecap="round" opacity="0.45310576384559526" />
<line x1="160.92" y1="242.04" x2="214.07" y2="341.96" stroke="#f0ede6" stroke-width="4.98" stroke-linecap="round" opacity="0.30818878141251366" />
<line x1="160.92" y1="242.04" x2="239.54" y2="160.58" stroke="#f0ede6" stroke-width="4.98" stroke-linecap="round" opacity="0.30868301756691846" />
<line x1="160.92" y1="242.04" x2="88.77" y2="232.34" stroke="#f0ede6" stroke-width="5.53" stroke-linecap="round" opacity="0.363730924567393" />
<line x1="226.71" y1="89.36" x2="334.13" y2="95.8" stroke="#f0ede6" stroke-width="6.44" stroke-linecap="round" opacity="0.4543996908962961" />
<line x1="226.71" y1="89.36" x2="239.54" y2="160.58" stroke="#f0ede6" stroke-width="5.54" stroke-linecap="round" opacity="0.36453061546368903" />
<line x1="226.71" y1="89.36" x2="127.65" y2="132.28" stroke="#f0ede6" stroke-width="6.43" stroke-linecap="round" opacity="0.4540942361544049" />
<line x1="286.87" y1="431.62" x2="182.05" y2="407.63" stroke="#f0ede6" stroke-width="6.42" stroke-linecap="round" opacity="0.45280030910370406" />
<line x1="286.87" y1="431.62" x2="377.6" y2="373.21" stroke="#f0ede6" stroke-width="6.42" stroke-linecap="round" opacity="0.45310576384559526" />
<line x1="325.54" y1="322.33" x2="214.07" y2="341.96" stroke="#f0ede6" stroke-width="4.98" stroke-linecap="round" opacity="0.30818878141251366" />
<line x1="325.54" y1="322.33" x2="341.33" y2="210.22" stroke="#f0ede6" stroke-width="4.98" stroke-linecap="round" opacity="0.30868301756691846" />
<line x1="325.54" y1="322.33" x2="377.6" y2="373.21" stroke="#f0ede6" stroke-width="5.53" stroke-linecap="round" opacity="0.363730924567393" />
<line x1="405.35" y1="176.49" x2="334.13" y2="95.8" stroke="#f0ede6" stroke-width="6.44" stroke-linecap="round" opacity="0.4543996908962961" />
<line x1="405.35" y1="176.49" x2="341.33" y2="210.22" stroke="#f0ede6" stroke-width="5.54" stroke-linecap="round" opacity="0.36453061546368903" />
<line x1="405.35" y1="176.49" x2="432.51" y2="280.97" stroke="#f0ede6" stroke-width="6.43" stroke-linecap="round" opacity="0.4540942361544049" />
<line x1="182.05" y1="407.63" x2="214.07" y2="341.96" stroke="#f0ede6" stroke-width="5.53" stroke-linecap="round" opacity="0.3632366884129882" />
<line x1="239.54" y1="160.58" x2="341.33" y2="210.22" stroke="#f0ede6" stroke-width="4.99" stroke-linecap="round" opacity="0.30898847230880966" />
<line x1="88.77" y1="232.34" x2="127.65" y2="132.28" stroke="#f0ede6" stroke-width="6.43" stroke-linecap="round" opacity="0.45360000000000006" />
<line x1="377.6" y1="373.21" x2="432.51" y2="280.97" stroke="#f0ede6" stroke-width="6.43" stroke-linecap="round" opacity="0.45360000000000006" /></g>
      <g><line x1="98.6" y1="339.8" x2="148.9" y2="313.47" stroke="#f0ede6" stroke-width="7.32" stroke-linecap="round" opacity="0.5426693845363111" />
<line x1="168.63" y1="172.66" x2="308.71" y2="147.93" stroke="#f0ede6" stroke-width="7.88" stroke-linecap="round" opacity="0.5990112185874864" />
<line x1="168.63" y1="172.66" x2="148.9" y2="313.47" stroke="#f0ede6" stroke-width="7.87" stroke-linecap="round" opacity="0.5985169824330817" />
<line x1="168.63" y1="172.66" x2="127.65" y2="132.28" stroke="#f0ede6" stroke-width="7.32" stroke-linecap="round" opacity="0.5434690754326073" />
<line x1="286.87" y1="431.62" x2="276.66" y2="375.78" stroke="#f0ede6" stroke-width="7.32" stroke-linecap="round" opacity="0.5426693845363111" />
<line x1="375.46" y1="273.54" x2="308.71" y2="147.93" stroke="#f0ede6" stroke-width="7.88" stroke-linecap="round" opacity="0.5990112185874864" />
<line x1="375.46" y1="273.54" x2="276.66" y2="375.78" stroke="#f0ede6" stroke-width="7.87" stroke-linecap="round" opacity="0.5985169824330817" />
<line x1="375.46" y1="273.54" x2="432.51" y2="280.97" stroke="#f0ede6" stroke-width="7.32" stroke-linecap="round" opacity="0.5434690754326073" />
<line x1="308.71" y1="147.93" x2="334.13" y2="95.8" stroke="#f0ede6" stroke-width="7.33" stroke-linecap="round" opacity="0.5439633115870119" />
<line x1="148.9" y1="313.47" x2="276.66" y2="375.78" stroke="#f0ede6" stroke-width="7.87" stroke-linecap="round" opacity="0.5982115276911906" /></g>
      <g><circle cx="98.6" cy="339.8" r="4.34" fill="#f0ede6" opacity="0.6694928109637164" />
<circle cx="168.63" cy="172.66" r="5.11" fill="#f0ede6" opacity="0.8340437690524154" />
<circle cx="160.92" cy="242.04" r="3.12" fill="#f0ede6" opacity="0.4061562309475847" />
<circle cx="226.71" cy="89.36" r="3.88" fill="#f0ede6" opacity="0.5707071890362837" />
<circle cx="286.87" cy="431.62" r="4.34" fill="#f0ede6" opacity="0.6694928109637164" />
<circle cx="375.46" cy="273.54" r="5.11" fill="#f0ede6" opacity="0.8340437690524154" />
<circle cx="325.54" cy="322.33" r="3.12" fill="#f0ede6" opacity="0.4061562309475847" />
<circle cx="405.35" cy="176.49" r="3.88" fill="#f0ede6" opacity="0.5707071890362837" />
<circle cx="182.05" cy="407.63" r="3.87" fill="#f0ede6" opacity="0.5683509569311258" />
<circle cx="308.71" cy="147.93" r="5.11" fill="#f0ede6" opacity="0.8346000000000001" />
<circle cx="214.07" cy="341.96" r="3.12" fill="#f0ede6" opacity="0.4056" />
<circle cx="334.13" cy="95.8" r="4.35" fill="#f0ede6" opacity="0.6718490430688744" />
<circle cx="148.9" cy="313.47" r="5.11" fill="#f0ede6" opacity="0.8331437684736287" />
<circle cx="239.54" cy="160.58" r="3.12" fill="#f0ede6" opacity="0.40705623152637127" />
<circle cx="276.66" cy="375.78" r="5.11" fill="#f0ede6" opacity="0.8331437684736287" />
<circle cx="341.33" cy="210.22" r="3.12" fill="#f0ede6" opacity="0.40705623152637127" />
<circle cx="88.77" cy="232.34" r="3.88" fill="#f0ede6" opacity="0.5692509575099124" />
<circle cx="127.65" cy="132.28" r="4.35" fill="#f0ede6" opacity="0.6709490424900877" />
<circle cx="377.6" cy="373.21" r="3.88" fill="#f0ede6" opacity="0.5692509575099124" />
<circle cx="432.51" cy="280.97" r="4.35" fill="#f0ede6" opacity="0.6709490424900877" /></g>
    </g>
  
</svg>